<svg xmlns="http://www.w3.org/2000/svg" width="16" height="17" viewBox="0 0 16 17" fill="none"><path d="M16 6.05357C15.7321 6.34821 15.4286 6.60714 15.1071 6.83036C13.6161 7.83929 12.1161 8.85714 10.6607 9.91071C9.91072 10.4643 8.98214 11.1429 8.00893 11.1429H7.99107C7.01786 11.1429 6.08929 10.4643 5.33929 9.91071C3.88393 8.84821 2.38393 7.83929 0.901786 6.83036C0.571429 6.60714 0.267857 6.34821 0 6.05357V13.1429C0 13.9286 0.642857 14.5714 1.42857 14.5714H14.5714C15.3571 14.5714 16 13.9286 16 13.1429V6.05357ZM16 3.42857C16 2.64286 15.3482 2 14.5714 2H1.42857C0.473214 2 0 2.75 0 3.625C0 4.4375 0.901786 5.44643 1.53571 5.875C2.91964 6.83929 4.32143 7.80357 5.70536 8.77679C6.28571 9.17857 7.26786 10 7.99107 10H8.00893C8.73214 10 9.71429 9.17857 10.2946 8.77679C11.6786 7.80357 13.0804 6.83929 14.4732 5.875C15.2589 5.33036 16 4.42857 16 3.42857Z" fill="white"></path></svg>